<mxfile host="Electron" modified="2024-03-13T07:10:34.319Z" agent="Mozilla/5.0 (Windows NT 10.0; Win64; x64) AppleWebKit/537.36 (KHTML, like Gecko) draw.io/24.0.4 Chrome/120.0.6099.109 Electron/28.1.0 Safari/537.36" etag="s221-z_-Kbn92KYGs-GI" version="24.0.4" type="device">
  <diagram name="Страница — 1" id="f5qaqixOcX6vG_OhwR0j">
    <mxGraphModel dx="794" dy="511" grid="1" gridSize="10" guides="1" tooltips="1" connect="1" arrows="1" fold="1" page="1" pageScale="1" pageWidth="649" pageHeight="1011" math="0" shadow="0">
      <root>
        <mxCell id="0" />
        <mxCell id="1" parent="0" />
        <mxCell id="nJ6Ww0g720tPBGZMg6HW-22" style="edgeStyle=orthogonalEdgeStyle;rounded=0;orthogonalLoop=1;jettySize=auto;html=1;exitX=0.5;exitY=0.5;exitDx=0;exitDy=20;exitPerimeter=0;entryX=0.5;entryY=0;entryDx=0;entryDy=0;endArrow=none;endFill=0;fontFamily=Times New Roman;" parent="1" source="nJ6Ww0g720tPBGZMg6HW-1" target="nJ6Ww0g720tPBGZMg6HW-16" edge="1">
          <mxGeometry relative="1" as="geometry" />
        </mxCell>
        <mxCell id="nJ6Ww0g720tPBGZMg6HW-1" value="insertion_sort(массив, длина массива)" style="html=1;dashed=0;whiteSpace=wrap;shape=mxgraph.dfd.start;fontSize=11;fontFamily=Times New Roman;" parent="1" vertex="1">
          <mxGeometry x="80" y="40" width="120" height="40" as="geometry" />
        </mxCell>
        <mxCell id="nJ6Ww0g720tPBGZMg6HW-23" style="edgeStyle=orthogonalEdgeStyle;rounded=0;orthogonalLoop=1;jettySize=auto;html=1;exitX=0.5;exitY=1;exitDx=0;exitDy=0;entryX=0.5;entryY=0;entryDx=0;entryDy=0;endArrow=none;endFill=0;fontFamily=Times New Roman;" parent="1" source="nJ6Ww0g720tPBGZMg6HW-3" target="nJ6Ww0g720tPBGZMg6HW-5" edge="1">
          <mxGeometry relative="1" as="geometry" />
        </mxCell>
        <mxCell id="nJ6Ww0g720tPBGZMg6HW-3" value="i = 1, пока i &amp;lt; кол-ва элементов, увеличивать i" style="shape=loopLimit;whiteSpace=wrap;html=1;fontFamily=Times New Roman;" parent="1" vertex="1">
          <mxGeometry x="240" y="120" width="120" height="80" as="geometry" />
        </mxCell>
        <mxCell id="dtTf51XncVz5735u-F1A-3" style="edgeStyle=orthogonalEdgeStyle;rounded=0;orthogonalLoop=1;jettySize=auto;html=1;exitX=1;exitY=0.5;exitDx=0;exitDy=0;entryX=1;entryY=0.5;entryDx=0;entryDy=0;endArrow=classic;endFill=1;fontFamily=Times New Roman;" parent="1" source="nJ6Ww0g720tPBGZMg6HW-4" target="nJ6Ww0g720tPBGZMg6HW-18" edge="1">
          <mxGeometry relative="1" as="geometry" />
        </mxCell>
        <mxCell id="nJ6Ww0g720tPBGZMg6HW-4" value="i" style="shape=loopLimit;whiteSpace=wrap;html=1;direction=west;fontFamily=Times New Roman;" parent="1" vertex="1">
          <mxGeometry x="240" y="600" width="120" height="80" as="geometry" />
        </mxCell>
        <mxCell id="nJ6Ww0g720tPBGZMg6HW-12" style="edgeStyle=orthogonalEdgeStyle;rounded=0;orthogonalLoop=1;jettySize=auto;html=1;exitX=0.5;exitY=1;exitDx=0;exitDy=0;entryX=0.5;entryY=0;entryDx=0;entryDy=0;endArrow=none;endFill=0;fontFamily=Times New Roman;" parent="1" source="nJ6Ww0g720tPBGZMg6HW-5" target="nJ6Ww0g720tPBGZMg6HW-10" edge="1">
          <mxGeometry relative="1" as="geometry" />
        </mxCell>
        <mxCell id="nJ6Ww0g720tPBGZMg6HW-5" value="j = i, пока j &amp;gt; 0 и текущий элемент меньше следующего, уменьшать j" style="shape=loopLimit;whiteSpace=wrap;html=1;fontFamily=Times New Roman;" parent="1" vertex="1">
          <mxGeometry x="240" y="240" width="120" height="80" as="geometry" />
        </mxCell>
        <mxCell id="dtTf51XncVz5735u-F1A-2" style="edgeStyle=orthogonalEdgeStyle;rounded=0;orthogonalLoop=1;jettySize=auto;html=1;exitX=0.5;exitY=0;exitDx=0;exitDy=0;entryX=0.5;entryY=1;entryDx=0;entryDy=0;endArrow=none;endFill=0;fontFamily=Times New Roman;" parent="1" source="nJ6Ww0g720tPBGZMg6HW-6" target="nJ6Ww0g720tPBGZMg6HW-4" edge="1">
          <mxGeometry relative="1" as="geometry" />
        </mxCell>
        <mxCell id="nJ6Ww0g720tPBGZMg6HW-6" value="j" style="shape=loopLimit;whiteSpace=wrap;html=1;direction=west;fontFamily=Times New Roman;" parent="1" vertex="1">
          <mxGeometry x="240" y="480" width="120" height="80" as="geometry" />
        </mxCell>
        <mxCell id="nJ6Ww0g720tPBGZMg6HW-11" style="edgeStyle=orthogonalEdgeStyle;rounded=0;orthogonalLoop=1;jettySize=auto;html=1;exitX=0.5;exitY=1;exitDx=0;exitDy=0;endArrow=none;endFill=0;fontFamily=Times New Roman;" parent="1" source="nJ6Ww0g720tPBGZMg6HW-10" target="nJ6Ww0g720tPBGZMg6HW-6" edge="1">
          <mxGeometry relative="1" as="geometry" />
        </mxCell>
        <mxCell id="nJ6Ww0g720tPBGZMg6HW-10" value="Поменять местами текущий и предыдущий элемент" style="rounded=0;whiteSpace=wrap;html=1;fontFamily=Times New Roman;" parent="1" vertex="1">
          <mxGeometry x="240" y="360" width="120" height="80" as="geometry" />
        </mxCell>
        <mxCell id="nJ6Ww0g720tPBGZMg6HW-14" value="Вернуть массив" style="html=1;dashed=0;whiteSpace=wrap;shape=mxgraph.dfd.start;fontFamily=Times New Roman;" parent="1" vertex="1">
          <mxGeometry x="80" y="720" width="120" height="40" as="geometry" />
        </mxCell>
        <mxCell id="nJ6Ww0g720tPBGZMg6HW-17" style="edgeStyle=orthogonalEdgeStyle;rounded=0;orthogonalLoop=1;jettySize=auto;html=1;exitX=1;exitY=0.5;exitDx=0;exitDy=0;entryX=0;entryY=0.5;entryDx=0;entryDy=0;endArrow=none;endFill=0;fontFamily=Times New Roman;" parent="1" source="nJ6Ww0g720tPBGZMg6HW-16" target="nJ6Ww0g720tPBGZMg6HW-3" edge="1">
          <mxGeometry relative="1" as="geometry" />
        </mxCell>
        <mxCell id="nJ6Ww0g720tPBGZMg6HW-16" value="Записать время старта выполения алгоритма" style="rounded=0;whiteSpace=wrap;html=1;fontFamily=Times New Roman;" parent="1" vertex="1">
          <mxGeometry x="80" y="120" width="120" height="80" as="geometry" />
        </mxCell>
        <mxCell id="dtTf51XncVz5735u-F1A-4" style="edgeStyle=orthogonalEdgeStyle;rounded=0;orthogonalLoop=1;jettySize=auto;html=1;exitX=0.5;exitY=1;exitDx=0;exitDy=0;endArrow=none;endFill=0;fontFamily=Times New Roman;" parent="1" source="nJ6Ww0g720tPBGZMg6HW-18" target="nJ6Ww0g720tPBGZMg6HW-14" edge="1">
          <mxGeometry relative="1" as="geometry" />
        </mxCell>
        <mxCell id="nJ6Ww0g720tPBGZMg6HW-18" value="Записать время конца выполения алгоритма" style="rounded=0;whiteSpace=wrap;html=1;fontFamily=Times New Roman;" parent="1" vertex="1">
          <mxGeometry x="80" y="600" width="120" height="80" as="geometry" />
        </mxCell>
      </root>
    </mxGraphModel>
  </diagram>
</mxfile>
